<?xml version="1.0" encoding="iso-8859-1"?>
<!-- Generator: Adobe Illustrator 19.2.1, SVG Export Plug-In . SVG Version: 6.00 Build 0)  -->
<svg version="1.1" id="Layer_1" xmlns="http://www.w3.org/2000/svg" xmlns:xlink="http://www.w3.org/1999/xlink" x="0px" y="0px"
	 viewBox="0 0 421 81" style="enable-background:new 0 0 421 81;" xml:space="preserve">
<g>
	<g>
		<path style="fill:#FFFFFF;" d="M121.564,39.391c-3.991-2.086-7.438-3.888-7.438-7.132c0-3.992,3.806-5.81,7.342-5.81
			c3.518,0,5.234,1.269,6.333,3.12c0.799,1.345,2.511,1.832,3.897,1.106l3.414-1.788l-0.115-0.485
			c-0.701-2.96-4.246-8.559-12.642-8.559c-9.305,0-15.804,5.239-15.804,12.74c0,6.757,5.569,9.532,10.483,11.98
			c3.982,1.984,7.421,3.698,7.421,7.053c0,4.455-4.281,6.859-8.31,6.859c-4.116,0-6.401-1.539-8.004-4.058
			c-0.846-1.329-2.588-1.758-3.953-0.972l-3.2,1.844c2.676,6.758,7.684,9.874,14.431,9.874c10.14,0,16.692-5.349,16.692-13.627
			C132.111,44.904,126.507,41.975,121.564,39.391z"/>
		<path style="fill:#FFFFFF;" d="M157.452,19.842c-6.111,0-11.598,1.933-16.683,4.877l0.697,1.82c0.403,1.05,1.215,1.893,2.25,2.333
			c1.035,0.44,2.204,0.441,3.241,0.003c2.971-1.254,6.137-2.103,9.286-2.103c3.048,0,5.38,0.849,6.744,2.455
			c1.233,1.453,1.667,3.553,1.253,6.068l-0.674,3.92c-1.935-1.65-5.464-3.082-9.985-3.082c-10.807,0-19.272,7.19-19.272,16.369
			c0,7.454,5.968,12.659,14.513,12.659c4.538,0,8.405-1.297,11.518-3.86c0.071,1.573,1.367,2.812,2.942,2.812h3.828l4.685-28.196
			c0.813-4.748-0.016-8.75-2.396-11.572C166.916,21.399,162.784,19.842,157.452,19.842z M150.758,58.553
			c-5.115,0-8.552-2.789-8.552-6.939c0-5.197,4.89-9.117,11.375-9.117c5.275,0,8.552,2.597,8.552,6.778
			C162.133,54.565,157.243,58.553,150.758,58.553z"/>
		<path style="fill:#FFFFFF;" d="M199.58,20.89h-8.936l0.263-1.421c1.021-5.654,3.723-7.847,8.133-7.823
			c1.452,0.008,2.696-1.044,2.924-2.478l0.663-4.159c-10.912-1.366-17.547,3.924-19.435,14.229l-0.306,1.652h-0.764
			c-2.264,0-4.194,1.639-4.561,3.873l-0.462,2.814h4.675l-5.318,31.698c-0.202,1.204,0.136,2.435,0.925,3.367
			c0.788,0.932,1.947,1.469,3.168,1.469h2.85l6.129-36.534h5.029c2.264,0,4.194-1.639,4.561-3.873L199.58,20.89z"/>
		<path style="fill:#FFFFFF;" d="M219.904,19.842c-13.517,0-24.514,11.829-24.514,26.37c0,11.511,7.406,18.949,18.869,18.949
			c7.497,0,14.95-3.207,19.919-9.782l-2.325-1.889c-1.364-1.108-3.323-1.056-4.629,0.12c-3.229,2.905-6.982,4.622-11.916,4.622
			c-4.216,0-7.578-1.335-9.724-3.861c-5.476-6.446-1.889-27.76,13.918-27.76c3.472,0,6.42,1.168,8.301,3.29
			c1.845,2.08,2.646,5.035,2.331,8.572h-16.779c-1.105,0-2.173,0.395-3.011,1.115c-1.955,1.68-2.327,4.179-2.964,4.886
			c-0.011,0.013,29.398,0.041,29.398,0.041l0.122-0.486c0.204-0.817,0.826-3.302,0.826-6.285
			C237.725,26.534,231.063,19.842,219.904,19.842z"/>
		<path style="fill:#FFFFFF;" d="M402.68,19.842c-13.517,0-24.514,11.829-24.514,26.37c0,11.511,7.406,18.949,18.869,18.949
			c7.497,0,14.95-3.207,19.919-9.782l-2.325-1.889c-1.364-1.108-3.323-1.056-4.629,0.12c-3.229,2.905-6.982,4.622-11.916,4.622
			c-4.216,0-7.578-1.335-9.724-3.861c-5.476-6.446-1.889-27.76,13.918-27.76c3.472,0,6.42,1.168,8.301,3.29
			c1.845,2.08,2.646,5.035,2.331,8.572h-16.779c-1.104,0-2.173,0.395-3.011,1.115c-1.955,1.68-2.327,4.179-2.964,4.886
			c-0.011,0.013,29.398,0.041,29.398,0.041l0.122-0.486c0.204-0.817,0.826-3.302,0.826-6.285
			C420.5,26.534,413.838,19.842,402.68,19.842z"/>
		<path style="fill:#FFFFFF;" d="M301.142,20.89c-1.766,0-3.378,1.007-4.153,2.594l-14.866,30.442
			c-1.081-7.001-4.554-29.063-5.178-33.036h-4.444c-1.761,0-3.369,1.002-4.148,2.581c-3.4,6.896-11.916,24.161-15.089,30.496
			l-4.357-29.138c-0.338-2.263-2.282-3.938-4.571-3.938h-4.186l7.314,43.222h5.107c1.746,0,3.343-0.984,4.128-2.543l14.789-29.366
			l4.686,28.048c0.372,2.228,2.3,3.86,4.559,3.86h4.041l21.86-43.222H301.142z"/>
		<path style="fill:#FFFFFF;" d="M324.502,19.842c-6.111,0-11.598,1.933-16.684,4.877l0.701,1.828
			c0.403,1.051,1.216,1.894,2.252,2.334c1.036,0.44,2.206,0.44,3.243,0.001c2.948-1.248,6.014-2.109,9.279-2.109
			c3.048,0,5.38,0.849,6.744,2.455c1.234,1.453,1.667,3.553,1.253,6.068l-0.674,3.92c-1.934-1.65-5.464-3.082-9.985-3.082
			c-10.807,0-19.272,7.19-19.272,16.369c0,7.454,5.968,12.659,14.514,12.659c4.538,0,8.405-1.297,11.518-3.86
			c0.071,1.573,1.367,2.812,2.942,2.812h3.828l4.686-28.196c0.813-4.748-0.016-8.75-2.396-11.572
			C333.965,21.399,329.834,19.842,324.502,19.842z M317.808,58.553c-5.115,0-8.552-2.789-8.552-6.939
			c0-5.197,4.89-9.117,11.375-9.117c5.275,0,8.552,2.597,8.552,6.778C329.183,54.565,324.292,58.553,317.808,58.553z"/>
		<path style="fill:#FFFFFF;" d="M377.902,20.89c-1.703,0-3.269,0.937-4.074,2.439l-16.665,31.094l-6.092-29.835
			c-0.439-2.152-2.332-3.697-4.528-3.697h-4.323l8.68,39.59c0.465,2.121,2.343,3.632,4.515,3.632h4.193l23.856-43.222H377.902z"/>
	</g>
	<path style="fill:#FFFFFF;" d="M81.273,7.362c0-3.997-3.252-7.249-7.249-7.249H7.749C3.752,0.113,0.5,3.365,0.5,7.362v66.275
		c0,3.997,3.252,7.249,7.249,7.249h66.275c3.997,0,7.249-3.252,7.249-7.249V7.362z M14.629,15.873h2.247
		c2.345,0,4.247,2.01,4.247,4.489v18.446h-2.247c-2.345,0-4.247-2.01-4.247-4.489V15.873z M15.043,66.044
		c-0.245-0.069-0.414-0.292-0.414-0.546c0-1.324,0-6.402,0-23.305h2.247c2.345,0,4.247,2.01,4.247,4.489V57.49
		c1.984-1.779,4.153-5.111,4.811-11.309c0.241-2.269,2.055-3.988,4.215-3.988h2.479C32.628,60.671,21.699,67.917,15.043,66.044z
		 M32.828,34.819c-0.241,2.269-2.055,3.988-4.215,3.988h-2.479c0-18.479,10.929-25.725,17.585-23.851
		c0.245,0.069,0.414,0.292,0.414,0.546c0,1.324,0,6.403,0,23.305h-2.247c-2.345,0-4.247-2.01-4.247-4.489V23.51
		C35.656,25.289,33.487,28.621,32.828,34.819z M38.054,66.044c-0.245-0.069-0.414-0.292-0.414-0.546c0-1.324,0-6.403,0-23.305h2.247
		c2.345,0,4.247,2.01,4.247,4.489V57.49c1.984-1.779,4.153-5.112,4.811-11.31c0.241-2.269,2.055-3.988,4.215-3.988h2.479
		C55.639,60.671,44.709,67.917,38.054,66.044z M67.144,65.127h-2.247c-2.345,0-4.247-2.01-4.247-4.489V42.192h2.247
		c2.345,0,4.247,2.01,4.247,4.489V65.127z M67.144,38.808h-2.247c-2.345,0-4.247-2.01-4.247-4.489V23.51
		c-1.984,1.779-4.153,5.111-4.811,11.309c-0.241,2.269-2.055,3.988-4.215,3.988h-2.479c0-18.479,10.929-25.725,17.585-23.851
		c0.245,0.069,0.414,0.292,0.414,0.546C67.144,16.826,67.144,21.905,67.144,38.808z"/>
</g>
</svg>
